<svg id="svg" version="1.1" xmlns="http://www.w3.org/2000/svg" xmlns:xlink="http://www.w3.org/1999/xlink" width="400" height="206.71140939597313" viewBox="0, 0, 400,206.71140939597313"><g id="svgg"><path id="path0" d="M276.279 13.816 C 272.350 15.315,270.177 18.918,271.515 21.715 C 272.040 22.811,272.584 23.752,273.045 24.358 C 273.276 24.662,273.748 25.282,274.095 25.736 C 274.442 26.191,274.946 26.890,275.216 27.290 C 275.485 27.689,275.858 28.143,276.044 28.297 C 276.230 28.451,276.382 28.663,276.382 28.768 C 276.382 28.872,276.672 29.578,277.027 30.336 C 277.824 32.041,277.769 33.212,276.793 35.297 C 274.437 40.332,267.163 42.478,258.088 40.815 C 253.963 40.060,248.859 38.768,247.752 38.200 C 247.411 38.025,246.620 37.732,245.995 37.549 C 245.370 37.367,244.400 36.983,243.841 36.697 C 243.282 36.410,242.694 36.176,242.534 36.176 C 242.375 36.176,241.716 35.907,241.071 35.578 C 239.732 34.897,237.048 33.611,236.279 33.283 C 235.995 33.161,235.111 32.697,234.315 32.252 C 231.117 30.461,231.328 30.430,228.734 33.082 C 226.685 35.178,221.923 39.381,220.011 40.783 C 219.578 41.099,218.692 41.751,218.041 42.230 C 215.865 43.831,215.404 44.144,213.045 45.623 C 212.465 45.987,211.618 46.487,211.163 46.735 C 210.708 46.983,210.057 47.383,209.716 47.624 C 209.375 47.865,208.677 48.275,208.165 48.535 C 207.654 48.795,206.630 49.337,205.891 49.740 C 205.152 50.143,204.003 50.695,203.337 50.966 C 202.671 51.238,201.717 51.794,201.218 52.204 L 200.310 52.948 200.311 73.244 C 200.312 96.126,200.183 94.347,201.904 95.302 C 202.335 95.541,203.292 96.097,204.031 96.538 C 204.770 96.979,205.886 97.630,206.512 97.984 C 207.137 98.339,208.253 98.993,208.992 99.438 C 209.731 99.883,210.727 100.439,211.206 100.672 C 211.684 100.906,212.138 101.198,212.214 101.321 C 212.291 101.445,212.783 101.733,213.308 101.961 C 213.834 102.190,214.410 102.504,214.589 102.661 C 214.769 102.817,215.327 103.163,215.830 103.431 C 216.746 103.917,217.850 104.557,220.362 106.059 C 221.101 106.501,222.181 107.091,222.763 107.370 C 224.141 108.031,224.547 109.283,223.647 110.097 C 223.408 110.314,223.031 110.817,222.811 111.214 C 222.590 111.612,221.998 112.496,221.495 113.178 C 220.992 113.860,220.425 114.698,220.234 115.039 C 220.044 115.380,219.623 115.982,219.298 116.378 C 218.974 116.773,218.708 117.186,218.708 117.295 C 218.708 117.404,218.505 117.709,218.256 117.973 C 218.008 118.238,217.613 118.766,217.378 119.147 C 217.143 119.528,216.579 120.375,216.124 121.030 C 215.669 121.684,215.065 122.566,214.780 122.990 C 214.496 123.414,213.891 124.297,213.437 124.954 C 212.982 125.610,212.377 126.494,212.093 126.918 C 211.809 127.341,211.204 128.225,210.749 128.881 C 210.295 129.538,209.690 130.422,209.406 130.845 C 209.121 131.269,208.517 132.153,208.062 132.809 C 207.607 133.465,207.003 134.352,206.718 134.780 C 206.434 135.208,205.829 136.094,205.375 136.748 C 204.920 137.403,204.356 138.250,204.121 138.631 C 203.886 139.012,203.491 139.540,203.242 139.804 C 202.994 140.069,202.791 140.374,202.791 140.483 C 202.791 140.592,202.525 141.005,202.201 141.400 C 201.876 141.795,201.467 142.398,201.292 142.740 C 201.116 143.081,200.777 143.537,200.538 143.753 C 200.299 143.970,200.103 144.251,200.103 144.378 C 200.103 144.505,199.838 144.932,199.513 145.328 C 199.189 145.723,198.780 146.326,198.604 146.667 C 198.429 147.009,198.090 147.465,197.851 147.681 C 197.612 147.897,197.415 148.176,197.414 148.301 C 197.413 148.425,197.111 148.914,196.742 149.386 C 196.374 149.859,195.913 150.510,195.718 150.833 C 195.524 151.157,195.180 151.654,194.955 151.938 C 194.167 152.934,194.293 153.775,195.349 154.549 C 198.396 156.786,198.930 156.995,199.820 156.295 C 200.120 156.059,200.470 155.866,200.596 155.866 C 200.723 155.866,201.478 155.546,202.274 155.156 C 204.884 153.875,206.394 153.223,207.339 152.970 C 207.850 152.833,208.548 152.575,208.889 152.396 C 209.230 152.217,210.346 151.859,211.370 151.601 C 212.393 151.342,213.713 150.994,214.303 150.826 C 218.282 149.694,228.593 149.800,232.558 151.013 C 233.411 151.274,234.667 151.644,235.349 151.836 C 236.031 152.027,236.692 152.269,236.818 152.372 C 236.944 152.476,237.549 152.738,238.162 152.955 C 239.426 153.403,242.033 154.719,243.721 155.763 C 244.346 156.149,245.183 156.649,245.581 156.873 C 245.979 157.097,246.617 157.514,246.999 157.800 C 247.999 158.549,249.075 157.841,255.090 152.480 C 255.375 152.227,255.840 151.861,256.124 151.668 C 256.408 151.475,257.152 150.943,257.778 150.486 C 259.635 149.130,262.947 146.921,264.176 146.217 C 264.807 145.856,265.835 145.274,266.460 144.923 C 267.085 144.573,267.736 144.194,267.907 144.081 C 268.078 143.968,268.636 143.687,269.147 143.457 C 269.659 143.227,270.310 142.908,270.594 142.748 C 271.720 142.115,274.260 140.982,274.554 140.982 C 274.725 140.982,275.323 140.750,275.882 140.466 C 276.442 140.182,277.391 139.806,277.993 139.631 C 279.583 139.167,279.483 140.861,279.483 114.229 C 279.483 89.439,279.470 89.044,278.657 88.786 C 278.449 88.720,277.922 88.382,277.486 88.035 C 277.050 87.688,276.413 87.273,276.072 87.111 C 275.450 86.817,274.734 86.341,273.158 85.175 C 272.692 84.830,272.217 84.548,272.101 84.548 C 271.986 84.548,271.556 84.292,271.146 83.979 C 270.399 83.410,269.080 82.532,267.804 81.757 C 267.430 81.530,266.858 81.167,266.534 80.952 C 266.209 80.737,265.478 80.264,264.910 79.901 C 264.341 79.539,263.610 79.064,263.285 78.846 C 262.961 78.628,262.399 78.264,262.036 78.036 C 261.674 77.809,261.048 77.367,260.644 77.054 C 260.240 76.742,259.842 76.486,259.759 76.486 C 259.587 76.486,256.951 74.631,256.951 74.510 C 256.951 74.208,258.012 72.134,258.426 71.628 C 259.000 70.925,259.177 70.670,261.548 67.126 C 261.973 66.490,262.416 65.912,262.533 65.839 C 262.649 65.767,262.933 65.366,263.164 64.947 C 263.636 64.089,264.346 63.031,265.053 62.133 C 265.315 61.800,265.716 61.228,265.943 60.862 C 266.171 60.496,266.729 59.661,267.183 59.007 C 267.638 58.353,268.243 57.474,268.527 57.054 C 268.811 56.635,269.416 55.753,269.871 55.095 C 270.326 54.437,270.921 53.562,271.194 53.151 C 271.467 52.739,271.751 52.357,271.826 52.300 C 271.901 52.243,272.417 51.499,272.972 50.646 C 273.528 49.793,274.168 48.885,274.394 48.628 C 274.620 48.371,274.997 47.849,275.232 47.468 C 275.467 47.087,276.031 46.240,276.486 45.585 C 276.941 44.931,277.545 44.049,277.829 43.625 C 278.114 43.201,278.718 42.319,279.173 41.665 C 279.628 41.011,280.189 40.165,280.420 39.787 C 280.652 39.408,280.990 38.929,281.172 38.722 C 281.353 38.515,281.692 37.968,281.925 37.506 C 282.157 37.043,282.489 36.547,282.662 36.404 C 282.835 36.260,283.089 35.801,283.226 35.384 C 283.363 34.967,283.687 34.300,283.945 33.902 C 284.203 33.504,284.518 32.782,284.645 32.297 C 284.772 31.812,285.051 31.114,285.267 30.746 C 286.606 28.457,286.558 20.645,285.193 18.620 C 284.919 18.214,284.568 17.633,284.414 17.330 C 283.307 15.151,278.370 13.018,276.279 13.816 M157.809 31.750 C 157.138 32.153,156.357 32.692,156.072 32.948 C 155.788 33.204,155.323 33.570,155.039 33.763 C 154.755 33.955,154.103 34.438,153.592 34.836 C 153.080 35.233,152.196 35.885,151.628 36.284 C 151.059 36.682,150.176 37.331,149.664 37.725 C 149.152 38.119,148.455 38.596,148.114 38.784 C 147.773 38.973,147.205 39.370,146.852 39.667 C 146.500 39.964,145.941 40.369,145.612 40.568 C 145.282 40.766,144.594 41.208,144.083 41.550 C 143.571 41.892,142.886 42.335,142.561 42.533 C 142.236 42.732,141.678 43.100,141.321 43.351 C 140.964 43.603,140.253 44.049,139.742 44.343 C 139.230 44.637,138.300 45.192,137.674 45.576 C 134.912 47.273,128.834 50.464,127.111 51.121 C 126.588 51.320,125.774 51.814,125.302 52.218 L 124.444 52.952 124.444 90.004 C 124.444 113.621,124.370 127.463,124.239 128.179 C 124.127 128.797,123.849 130.536,123.623 132.043 C 123.396 133.551,123.073 134.994,122.905 135.251 C 122.737 135.507,122.455 136.127,122.279 136.628 C 121.856 137.825,120.745 139.492,119.122 141.365 C 117.598 143.122,117.650 143.503,119.444 143.770 C 119.977 143.850,120.925 144.090,121.550 144.304 C 122.176 144.518,123.385 144.837,124.238 145.013 C 125.090 145.189,126.253 145.509,126.822 145.724 C 127.390 145.939,128.599 146.361,129.509 146.661 C 132.200 147.548,133.798 148.152,134.669 148.612 C 135.119 148.849,135.614 149.044,135.769 149.044 C 135.923 149.044,136.578 149.319,137.224 149.656 C 137.870 149.992,139.328 150.725,140.465 151.285 C 143.295 152.677,144.951 153.573,145.339 153.920 C 145.519 154.080,145.751 154.212,145.856 154.212 C 146.028 154.213,147.513 155.149,149.147 156.287 C 152.579 158.676,152.371 158.662,154.744 156.687 C 158.840 153.277,160.764 151.689,162.377 150.388 C 163.363 149.592,164.789 148.425,165.547 147.795 C 166.305 147.166,167.158 146.490,167.442 146.295 C 167.726 146.099,168.340 145.638,168.805 145.269 C 170.299 144.087,172.027 142.751,172.611 142.326 C 172.923 142.098,174.084 141.214,175.191 140.362 C 176.297 139.509,177.417 138.669,177.679 138.494 C 177.941 138.320,178.419 137.977,178.742 137.732 C 179.064 137.487,179.979 136.818,180.775 136.245 C 181.571 135.672,182.362 135.074,182.532 134.915 C 182.703 134.757,183.128 134.482,183.478 134.304 C 183.827 134.126,184.239 133.828,184.394 133.642 C 184.549 133.456,185.007 133.126,185.413 132.911 C 185.818 132.695,186.568 132.150,187.080 131.700 L 188.010 130.882 187.609 130.131 C 187.389 129.718,186.620 128.792,185.900 128.073 L 184.593 126.765 183.592 127.310 C 182.366 127.978,180.302 129.349,179.757 129.857 C 179.535 130.064,179.246 130.233,179.115 130.233 C 178.983 130.233,178.698 130.429,178.482 130.668 C 178.265 130.907,177.756 131.273,177.351 131.480 C 176.945 131.687,176.486 132.009,176.331 132.196 C 176.175 132.384,175.717 132.718,175.311 132.941 C 174.905 133.163,174.016 133.756,173.333 134.259 C 172.651 134.762,171.814 135.329,171.473 135.518 C 171.132 135.707,170.658 136.040,170.420 136.258 C 168.888 137.655,168.011 137.645,164.961 136.196 C 163.995 135.737,162.599 135.077,161.860 134.730 C 161.121 134.384,160.284 133.990,160.000 133.857 C 159.716 133.723,159.297 133.515,159.070 133.394 C 158.676 133.185,157.227 132.503,153.798 130.913 C 150.833 129.538,149.559 128.898,149.199 128.604 C 148.824 128.297,148.641 102.569,149.007 101.671 C 149.132 101.364,150.958 99.721,153.907 97.261 C 154.452 96.806,156.547 95.039,158.562 93.333 C 162.390 90.094,165.663 87.355,166.718 86.508 C 167.059 86.234,168.053 85.425,168.926 84.710 C 169.799 83.996,171.008 83.018,171.613 82.538 C 172.218 82.059,172.946 81.476,173.230 81.244 C 174.890 79.889,175.774 79.187,176.748 78.450 C 177.349 77.995,177.992 77.483,178.178 77.313 C 178.498 77.018,179.283 76.393,180.772 75.245 C 181.141 74.961,181.982 74.310,182.640 73.798 C 184.279 72.524,185.194 71.834,186.047 71.225 C 186.444 70.941,187.282 70.292,187.907 69.783 C 188.532 69.273,189.370 68.662,189.767 68.424 C 190.165 68.187,190.685 67.639,190.921 67.206 L 191.352 66.420 190.736 65.717 C 189.910 64.773,186.718 61.273,185.943 60.462 C 185.602 60.104,184.672 59.085,183.876 58.197 C 183.080 57.309,182.282 56.432,182.102 56.250 C 181.923 56.067,180.901 54.941,179.833 53.747 C 178.764 52.553,177.833 51.530,177.762 51.473 C 177.692 51.416,176.850 50.486,175.891 49.406 C 174.933 48.326,173.919 47.204,173.638 46.913 C 173.357 46.623,172.289 45.465,171.266 44.341 C 170.243 43.216,169.131 42.012,168.794 41.665 C 168.458 41.318,167.397 40.150,166.438 39.070 C 164.436 36.817,161.370 33.467,159.979 32.013 L 159.028 31.018 157.809 31.750 M338.197 31.520 C 337.818 31.800,336.940 32.609,336.247 33.318 C 335.554 34.026,333.824 35.618,332.403 36.854 C 329.200 39.640,328.922 39.870,328.274 40.269 C 327.987 40.446,327.659 40.699,327.545 40.830 C 327.344 41.063,326.785 41.454,324.374 43.047 C 322.659 44.179,319.384 46.047,317.933 46.719 C 317.421 46.956,316.537 47.376,315.969 47.652 C 314.205 48.509,311.657 49.576,311.008 49.731 C 310.667 49.812,310.056 50.044,309.652 50.246 C 309.247 50.449,308.317 50.767,307.585 50.953 C 305.893 51.384,303.672 52.250,303.208 52.661 C 302.871 52.958,302.846 55.033,302.787 87.006 C 302.713 127.726,302.789 126.349,300.335 131.370 C 299.543 132.988,298.886 133.937,297.771 135.070 C 296.009 136.861,296.241 137.658,298.646 138.072 C 299.947 138.297,301.992 138.871,305.323 139.949 C 306.062 140.188,307.364 140.595,308.217 140.854 C 309.070 141.113,310.140 141.515,310.594 141.748 C 311.049 141.981,311.747 142.242,312.145 142.327 C 312.543 142.413,313.370 142.749,313.983 143.076 C 314.595 143.402,315.233 143.669,315.399 143.669 C 315.565 143.669,316.134 143.896,316.662 144.174 C 317.190 144.452,319.269 145.498,321.282 146.500 C 326.055 148.875,326.894 149.322,327.562 149.847 C 327.868 150.087,328.228 150.284,328.364 150.284 C 328.499 150.284,329.067 150.610,329.627 151.008 C 330.187 151.406,330.725 151.731,330.822 151.731 C 330.920 151.731,331.256 151.941,331.569 152.196 C 331.883 152.452,332.584 152.941,333.129 153.282 C 333.673 153.623,334.409 154.088,334.764 154.315 C 335.804 154.981,338.864 157.250,339.492 157.821 C 340.516 158.753,341.361 158.567,342.986 157.052 C 343.748 156.343,344.817 155.416,345.364 154.992 C 345.910 154.568,346.775 153.899,347.287 153.504 C 347.798 153.109,348.509 152.549,348.866 152.259 C 349.222 151.969,349.585 151.731,349.672 151.731 C 349.759 151.731,350.212 151.449,350.677 151.104 C 352.068 150.074,352.919 149.503,353.902 148.940 C 354.413 148.647,355.437 148.043,356.176 147.599 C 358.463 146.225,366.646 142.222,367.168 142.222 C 367.342 142.222,367.900 142.001,368.408 141.731 C 368.916 141.460,369.873 141.082,370.535 140.890 C 371.196 140.697,371.934 140.416,372.174 140.264 C 372.414 140.112,373.320 139.796,374.188 139.562 C 375.701 139.153,376.955 138.571,377.726 137.917 C 378.199 137.516,378.293 51.583,377.822 50.646 C 377.625 50.253,377.291 50.069,376.430 49.877 C 370.695 48.598,366.677 47.249,362.067 45.056 C 361.385 44.731,360.408 44.273,359.897 44.039 C 359.385 43.804,358.734 43.472,358.450 43.301 C 358.165 43.131,357.700 42.899,357.416 42.786 C 357.132 42.673,356.202 42.167,355.349 41.661 C 354.496 41.156,353.380 40.522,352.868 40.253 C 352.357 39.984,351.597 39.538,351.179 39.262 C 350.762 38.986,349.939 38.481,349.351 38.140 C 348.762 37.798,348.034 37.323,347.732 37.083 C 347.430 36.842,346.811 36.443,346.357 36.195 C 345.902 35.947,345.018 35.376,344.393 34.926 C 342.604 33.640,341.088 32.595,340.347 32.138 C 339.973 31.907,339.491 31.559,339.276 31.364 C 338.907 31.030,338.851 31.038,338.197 31.520 M61.292 31.537 C 60.951 31.714,60.253 32.257,59.742 32.744 C 58.145 34.266,55.014 36.813,53.440 37.870 C 52.983 38.177,52.238 38.705,51.783 39.044 C 51.328 39.383,50.456 39.969,49.845 40.347 C 49.234 40.725,48.258 41.334,47.675 41.702 C 47.092 42.070,46.135 42.600,45.549 42.880 C 44.962 43.160,44.426 43.481,44.356 43.593 C 44.287 43.706,43.697 43.997,43.045 44.240 C 42.394 44.484,41.716 44.813,41.540 44.972 C 41.364 45.130,40.806 45.405,40.300 45.582 C 39.794 45.758,38.915 46.124,38.346 46.394 C 37.004 47.031,35.277 47.727,34.109 48.099 C 33.597 48.263,32.713 48.587,32.145 48.820 C 31.576 49.053,30.276 49.445,29.256 49.690 C 27.601 50.089,27.351 50.212,26.931 50.836 L 26.460 51.534 26.461 89.385 C 26.462 127.251,26.533 131.621,27.188 134.160 C 28.123 137.785,28.536 139.137,29.018 140.155 C 29.314 140.780,29.558 141.399,29.559 141.531 C 29.563 142.034,32.353 147.167,33.592 148.951 C 34.047 149.606,34.575 150.374,34.766 150.659 C 35.450 151.677,38.586 154.908,40.444 156.509 C 42.972 158.688,43.011 158.687,45.794 156.331 C 46.968 155.336,48.730 153.871,49.708 153.075 C 51.618 151.520,51.656 151.490,55.115 148.592 C 56.380 147.533,58.287 145.948,59.353 145.070 C 60.419 144.192,61.571 143.234,61.912 142.941 C 62.253 142.649,63.292 141.786,64.221 141.024 C 67.203 138.577,72.341 134.303,73.953 132.928 C 76.467 130.785,77.152 130.372,77.478 130.806 C 77.926 131.403,77.727 166.515,77.266 168.071 C 77.080 168.701,76.775 170.089,76.590 171.156 C 76.405 172.223,76.039 173.614,75.777 174.248 C 75.515 174.882,75.240 175.680,75.167 176.021 C 75.045 176.584,74.342 178.158,73.367 180.052 C 73.162 180.450,72.755 181.240,72.463 181.809 C 72.171 182.377,71.631 183.315,71.263 183.892 C 70.895 184.469,70.408 185.241,70.181 185.608 C 69.511 186.689,67.404 189.603,66.515 190.680 C 64.656 192.932,72.352 192.211,77.193 189.679 C 77.752 189.387,78.322 189.147,78.459 189.147 C 78.597 189.147,78.831 189.001,78.979 188.822 C 79.127 188.643,79.587 188.324,80.001 188.113 C 81.172 187.516,84.373 184.796,86.292 182.770 C 88.297 180.652,88.583 180.335,89.199 179.551 C 89.540 179.117,90.145 178.361,90.543 177.871 C 90.941 177.381,91.431 176.743,91.633 176.455 C 92.188 175.660,93.064 175.932,94.509 177.348 C 95.155 177.983,96.114 178.873,96.638 179.328 C 97.163 179.783,97.753 180.313,97.949 180.506 C 99.279 181.816,104.098 184.805,105.716 185.323 C 106.182 185.472,107.091 185.787,107.736 186.023 C 111.194 187.288,112.558 186.352,110.564 184.083 C 109.502 182.873,107.287 179.785,107.287 179.513 C 107.287 179.446,107.078 179.102,106.822 178.749 C 106.566 178.395,106.164 177.729,105.929 177.270 C 105.694 176.810,105.348 176.155,105.160 175.814 C 104.530 174.670,103.359 171.838,103.355 171.447 C 103.352 171.234,103.120 170.408,102.838 169.612 C 101.899 166.959,101.891 166.417,101.955 113.781 L 102.016 63.945 102.636 63.212 C 103.248 62.488,104.270 61.052,105.032 59.845 C 105.247 59.504,105.748 58.806,106.145 58.295 C 108.490 55.271,108.140 54.778,102.910 53.730 C 101.755 53.498,100.570 53.186,100.276 53.035 C 99.982 52.885,99.016 52.564,98.129 52.322 C 97.242 52.080,96.311 51.751,96.062 51.591 C 95.812 51.431,95.190 51.190,94.679 51.055 C 94.169 50.920,93.332 50.587,92.820 50.315 C 92.308 50.042,91.796 49.819,91.681 49.819 C 91.481 49.819,88.504 48.437,87.442 47.850 C 87.158 47.693,86.367 47.281,85.685 46.935 C 85.003 46.589,83.915 46.003,83.268 45.633 C 82.621 45.264,81.602 44.694,81.004 44.368 C 80.406 44.042,79.680 43.616,79.390 43.422 C 79.100 43.227,78.351 42.742,77.726 42.344 C 77.101 41.945,76.322 41.441,75.995 41.223 C 75.668 41.005,75.051 40.594,74.624 40.310 C 74.197 40.026,73.310 39.421,72.652 38.966 C 71.995 38.512,71.090 37.896,70.642 37.599 C 70.193 37.301,69.766 36.966,69.693 36.854 C 69.620 36.743,69.365 36.548,69.126 36.422 C 68.887 36.296,68.282 35.868,67.782 35.469 C 67.282 35.071,66.501 34.460,66.047 34.112 C 65.592 33.764,64.599 32.969,63.840 32.347 C 62.329 31.108,62.202 31.067,61.292 31.537 M152.145 55.224 C 153.225 56.400,154.806 58.109,155.659 59.021 C 156.512 59.933,158.093 61.642,159.173 62.819 C 160.253 63.996,161.695 65.546,162.377 66.263 C 163.059 66.981,164.501 68.523,165.581 69.691 C 166.661 70.859,168.127 72.410,168.837 73.139 C 170.416 74.757,170.568 75.533,169.457 76.303 C 169.088 76.559,168.413 77.080,167.959 77.461 C 167.504 77.842,166.853 78.379,166.512 78.655 C 166.171 78.931,164.904 79.974,163.697 80.974 C 162.490 81.973,160.956 83.238,160.286 83.784 C 159.617 84.331,158.791 85.011,158.450 85.295 C 158.109 85.580,155.969 87.341,153.695 89.209 C 151.421 91.078,149.294 92.856,148.969 93.161 C 148.231 93.852,147.783 93.643,147.545 92.495 C 147.134 90.518,147.465 51.667,147.896 51.352 C 148.344 51.025,148.009 50.719,152.145 55.224 M225.314 53.219 C 225.451 53.384,225.904 53.629,226.321 53.764 C 226.739 53.899,227.460 54.229,227.925 54.498 C 228.390 54.767,228.902 54.987,229.062 54.987 C 229.223 54.987,229.925 55.258,230.624 55.588 C 231.322 55.919,232.421 56.298,233.066 56.432 C 233.710 56.566,234.627 56.847,235.103 57.056 C 235.579 57.265,237.318 57.637,238.966 57.882 C 240.615 58.127,242.418 58.413,242.974 58.518 C 244.722 58.847,249.488 58.738,252.462 58.301 C 258.717 57.382,260.496 57.529,259.420 58.875 C 259.142 59.222,258.703 59.815,258.443 60.192 C 258.184 60.570,257.744 61.204,257.465 61.602 C 257.186 62.000,256.776 62.605,256.555 62.946 C 256.049 63.725,255.502 64.514,254.519 65.881 C 254.094 66.472,253.586 67.216,253.390 67.534 C 253.193 67.853,252.710 68.532,252.315 69.044 C 251.921 69.556,251.312 70.439,250.962 71.008 C 250.612 71.576,250.046 72.413,249.705 72.868 C 248.901 73.941,247.658 75.741,247.125 76.604 C 246.894 76.978,246.525 77.483,246.305 77.726 C 245.927 78.143,245.619 78.605,244.651 80.198 C 244.424 80.573,244.005 81.162,243.721 81.508 C 243.437 81.854,243.018 82.434,242.791 82.797 C 242.241 83.675,240.985 85.487,240.217 86.512 C 239.876 86.966,239.315 87.812,238.970 88.391 C 237.950 90.104,237.041 90.311,235.424 89.199 C 234.846 88.801,234.266 88.473,234.137 88.470 C 234.008 88.467,233.536 88.187,233.090 87.850 C 232.643 87.512,232.173 87.235,232.045 87.235 C 231.916 87.235,231.491 86.998,231.100 86.707 C 230.708 86.417,230.016 85.998,229.561 85.775 C 229.106 85.553,228.129 84.999,227.390 84.544 C 226.651 84.090,225.654 83.515,225.175 83.268 C 224.590 82.966,224.231 82.610,224.082 82.184 C 223.689 81.062,223.787 54.016,224.186 53.408 C 224.551 52.851,224.953 52.784,225.314 53.219 M330.532 54.080 C 331.846 54.718,333.525 55.516,334.264 55.854 C 335.003 56.192,336.165 56.733,336.848 57.058 C 340.243 58.673,341.235 59.121,341.408 59.121 C 341.511 59.121,342.063 59.349,342.633 59.627 C 344.263 60.421,348.866 62.281,351.043 63.025 C 351.915 63.322,352.965 63.845,353.377 64.186 L 354.125 64.806 354.120 99.974 C 354.118 119.316,354.058 135.293,353.987 135.478 C 353.790 135.989,351.457 135.622,350.331 134.903 C 350.078 134.741,349.397 134.471,348.818 134.302 C 348.239 134.133,347.399 133.808,346.951 133.580 C 346.504 133.351,345.607 133.010,344.959 132.822 C 344.311 132.634,343.731 132.400,343.671 132.302 C 343.611 132.205,342.935 131.917,342.168 131.662 C 341.402 131.407,340.366 130.981,339.866 130.716 C 339.366 130.450,338.808 130.232,338.626 130.232 C 338.444 130.232,337.649 129.906,336.859 129.508 C 336.070 129.111,335.301 128.786,335.150 128.786 C 334.999 128.786,334.353 128.506,333.714 128.165 C 333.075 127.824,332.413 127.545,332.245 127.545 C 332.076 127.545,331.414 127.280,330.775 126.956 C 330.136 126.633,329.256 126.251,328.821 126.108 C 327.084 125.539,327.237 129.105,327.236 89.193 C 327.235 57.528,327.269 53.791,327.557 53.379 C 327.972 52.787,327.775 52.740,330.532 54.080 M52.713 55.004 C 53.339 55.241,53.990 55.552,54.160 55.694 C 54.331 55.837,56.749 57.094,59.535 58.489 C 62.320 59.883,64.832 61.153,65.116 61.311 C 65.780 61.680,67.036 62.299,68.217 62.841 C 68.729 63.075,69.380 63.397,69.664 63.556 C 70.169 63.839,74.608 66.130,76.510 67.090 C 77.815 67.748,77.720 65.560,77.723 95.093 L 77.726 121.659 76.848 122.529 C 76.364 123.008,75.583 123.704,75.112 124.077 C 73.408 125.425,72.683 126.008,71.824 126.718 C 71.344 127.116,70.498 127.795,69.946 128.226 C 69.393 128.657,68.661 129.241,68.320 129.524 C 67.979 129.806,67.265 130.384,66.734 130.807 C 63.734 133.195,62.255 134.390,60.966 135.466 C 58.630 137.416,57.544 137.087,54.458 133.497 C 53.844 132.782,53.205 132.039,53.039 131.846 C 52.872 131.653,52.357 130.770,51.894 129.882 C 50.630 127.459,50.643 127.882,50.656 89.734 C 50.667 55.700,50.677 55.180,51.349 54.732 C 51.474 54.648,51.576 54.579,51.576 54.577 C 51.576 54.575,52.088 54.768,52.713 55.004 M245.375 94.487 C 245.659 94.711,246.211 95.041,246.602 95.218 C 246.993 95.396,247.606 95.766,247.965 96.040 C 248.324 96.313,248.712 96.537,248.828 96.537 C 248.943 96.537,249.400 96.787,249.842 97.091 C 250.284 97.396,251.065 97.865,251.576 98.134 C 252.088 98.402,253.018 98.940,253.643 99.327 C 254.269 99.715,255.313 100.316,255.964 100.662 C 257.921 101.705,257.778 100.276,257.778 118.717 C 257.778 137.002,257.853 136.137,256.337 135.261 C 253.425 133.576,249.260 131.473,248.838 131.473 C 248.673 131.473,248.103 131.242,247.571 130.959 C 247.040 130.677,245.933 130.268,245.112 130.050 C 244.290 129.833,243.245 129.515,242.791 129.345 C 240.100 128.337,232.359 127.731,228.837 128.251 C 227.757 128.411,225.990 128.653,224.910 128.788 C 223.829 128.924,222.295 129.256,221.499 129.525 C 217.684 130.815,216.503 130.479,218.140 128.568 C 218.509 128.136,219.137 127.302,219.535 126.715 C 219.933 126.128,220.537 125.292,220.879 124.858 C 221.220 124.424,221.824 123.593,222.222 123.011 C 222.620 122.429,223.242 121.581,223.605 121.127 C 223.968 120.672,224.323 120.117,224.394 119.892 C 224.466 119.667,224.603 119.483,224.699 119.483 C 224.795 119.483,225.159 119.041,225.508 118.501 C 225.857 117.961,226.513 117.008,226.966 116.382 C 227.419 115.757,228.024 114.920,228.311 114.522 C 230.786 111.093,231.320 110.361,232.160 109.251 C 232.503 108.796,233.109 107.959,233.505 107.390 C 233.901 106.822,234.505 105.984,234.846 105.530 C 235.188 105.075,235.719 104.331,236.028 103.876 C 236.788 102.756,237.838 101.304,238.359 100.652 C 238.595 100.357,238.945 99.883,239.136 99.599 C 240.295 97.874,241.577 96.108,242.776 94.586 C 243.462 93.715,244.354 93.680,245.375 94.487 " stroke="none" fill="#070707" fill-rule="evenodd"></path><path id="path1" d="M0.000 103.359 L 0.000 206.718 200.000 206.718 L 400.000 206.718 400.000 103.359 L 400.000 0.000 200.000 0.000 L 0.000 0.000 0.000 103.359 M280.925 14.486 C 282.419 15.213,283.989 16.493,284.414 17.330 C 284.568 17.633,284.919 18.214,285.193 18.620 C 286.558 20.645,286.606 28.457,285.267 30.746 C 285.051 31.114,284.772 31.812,284.645 32.297 C 284.518 32.782,284.203 33.504,283.945 33.902 C 283.687 34.300,283.363 34.967,283.226 35.384 C 283.089 35.801,282.835 36.260,282.662 36.404 C 282.489 36.547,282.157 37.043,281.925 37.506 C 281.692 37.968,281.353 38.515,281.172 38.722 C 280.990 38.929,280.652 39.408,280.420 39.787 C 280.189 40.165,279.628 41.011,279.173 41.665 C 278.718 42.319,278.114 43.201,277.829 43.625 C 277.545 44.049,276.941 44.931,276.486 45.585 C 276.031 46.240,275.467 47.087,275.232 47.468 C 274.997 47.849,274.620 48.371,274.394 48.628 C 274.168 48.885,273.528 49.793,272.972 50.646 C 272.417 51.499,271.901 52.243,271.826 52.300 C 271.751 52.357,271.467 52.739,271.194 53.151 C 270.921 53.562,270.326 54.437,269.871 55.095 C 269.416 55.753,268.811 56.635,268.527 57.054 C 268.243 57.474,267.638 58.353,267.183 59.007 C 266.729 59.661,266.171 60.496,265.943 60.862 C 265.716 61.228,265.315 61.800,265.053 62.133 C 264.346 63.031,263.636 64.089,263.164 64.947 C 262.933 65.366,262.649 65.767,262.533 65.839 C 262.416 65.912,261.973 66.490,261.548 67.126 C 259.177 70.670,259.000 70.925,258.426 71.628 C 258.012 72.134,256.951 74.208,256.951 74.510 C 256.951 74.631,259.587 76.486,259.759 76.486 C 259.842 76.486,260.240 76.742,260.644 77.054 C 261.048 77.367,261.674 77.809,262.036 78.036 C 262.399 78.264,262.961 78.628,263.285 78.846 C 263.610 79.064,264.341 79.539,264.910 79.901 C 265.478 80.264,266.209 80.737,266.534 80.952 C 266.858 81.167,267.430 81.530,267.804 81.757 C 269.080 82.532,270.399 83.410,271.146 83.979 C 271.556 84.292,271.986 84.548,272.101 84.548 C 272.217 84.548,272.692 84.830,273.158 85.175 C 274.734 86.341,275.450 86.817,276.072 87.111 C 276.413 87.273,277.050 87.688,277.486 88.035 C 277.922 88.382,278.449 88.720,278.657 88.786 C 279.470 89.044,279.483 89.439,279.483 114.229 C 279.483 140.861,279.583 139.167,277.993 139.631 C 277.391 139.806,276.442 140.182,275.882 140.466 C 275.323 140.750,274.725 140.982,274.554 140.982 C 274.260 140.982,271.720 142.115,270.594 142.748 C 270.310 142.908,269.659 143.227,269.147 143.457 C 268.636 143.687,268.078 143.968,267.907 144.081 C 267.736 144.194,267.085 144.573,266.460 144.923 C 265.835 145.274,264.807 145.856,264.176 146.217 C 262.947 146.921,259.635 149.130,257.778 150.486 C 257.152 150.943,256.408 151.475,256.124 151.668 C 255.840 151.861,255.375 152.227,255.090 152.480 C 249.075 157.841,247.999 158.549,246.999 157.800 C 246.617 157.514,245.979 157.097,245.581 156.873 C 245.183 156.649,244.346 156.149,243.721 155.763 C 242.033 154.719,239.426 153.403,238.162 152.955 C 237.549 152.738,236.944 152.476,236.818 152.372 C 236.692 152.269,236.031 152.027,235.349 151.836 C 234.667 151.644,233.411 151.274,232.558 151.013 C 228.593 149.800,218.282 149.694,214.303 150.826 C 213.713 150.994,212.393 151.342,211.370 151.601 C 210.346 151.859,209.230 152.217,208.889 152.396 C 208.548 152.575,207.850 152.833,207.339 152.970 C 206.394 153.223,204.884 153.875,202.274 155.156 C 201.478 155.546,200.723 155.866,200.596 155.866 C 200.470 155.866,200.120 156.059,199.820 156.295 C 198.930 156.995,198.396 156.786,195.349 154.549 C 194.293 153.775,194.167 152.934,194.955 151.938 C 195.180 151.654,195.524 151.157,195.718 150.833 C 195.913 150.510,196.374 149.859,196.742 149.386 C 197.111 148.914,197.413 148.425,197.414 148.301 C 197.415 148.176,197.612 147.897,197.851 147.681 C 198.090 147.465,198.429 147.009,198.604 146.667 C 198.780 146.326,199.189 145.723,199.513 145.328 C 199.838 144.932,200.103 144.505,200.103 144.378 C 200.103 144.251,200.299 143.970,200.538 143.753 C 200.777 143.537,201.116 143.081,201.292 142.740 C 201.467 142.398,201.876 141.795,202.201 141.400 C 202.525 141.005,202.791 140.592,202.791 140.483 C 202.791 140.374,202.994 140.069,203.242 139.804 C 203.491 139.540,203.886 139.012,204.121 138.631 C 204.356 138.250,204.920 137.403,205.375 136.748 C 205.829 136.094,206.434 135.208,206.718 134.780 C 207.003 134.352,207.607 133.465,208.062 132.809 C 208.517 132.153,209.121 131.269,209.406 130.845 C 209.690 130.422,210.295 129.538,210.749 128.881 C 211.204 128.225,211.809 127.341,212.093 126.918 C 212.377 126.494,212.982 125.610,213.437 124.954 C 213.891 124.297,214.496 123.414,214.780 122.990 C 215.065 122.566,215.669 121.684,216.124 121.030 C 216.579 120.375,217.143 119.528,217.378 119.147 C 217.613 118.766,218.008 118.238,218.256 117.973 C 218.505 117.709,218.708 117.404,218.708 117.295 C 218.708 117.186,218.974 116.773,219.298 116.378 C 219.623 115.982,220.044 115.380,220.234 115.039 C 220.425 114.698,220.992 113.860,221.495 113.178 C 221.998 112.496,222.590 111.612,222.811 111.214 C 223.031 110.817,223.408 110.314,223.647 110.097 C 224.547 109.283,224.141 108.031,222.763 107.370 C 222.181 107.091,221.101 106.501,220.362 106.059 C 217.850 104.557,216.746 103.917,215.830 103.431 C 215.327 103.163,214.769 102.817,214.589 102.661 C 214.410 102.504,213.834 102.190,213.308 101.961 C 212.783 101.733,212.291 101.445,212.214 101.321 C 212.138 101.198,211.684 100.906,211.206 100.672 C 210.727 100.439,209.731 99.883,208.992 99.438 C 208.253 98.993,207.137 98.339,206.512 97.984 C 205.886 97.630,204.770 96.979,204.031 96.538 C 203.292 96.097,202.335 95.541,201.904 95.302 C 200.183 94.347,200.312 96.126,200.311 73.244 L 200.310 52.948 201.218 52.204 C 201.717 51.794,202.671 51.238,203.337 50.966 C 204.003 50.695,205.152 50.143,205.891 49.740 C 206.630 49.337,207.654 48.795,208.165 48.535 C 208.677 48.275,209.375 47.865,209.716 47.624 C 210.057 47.383,210.708 46.983,211.163 46.735 C 211.618 46.487,212.465 45.987,213.045 45.623 C 215.404 44.144,215.865 43.831,218.041 42.230 C 218.692 41.751,219.578 41.099,220.011 40.783 C 221.923 39.381,226.685 35.178,228.734 33.082 C 231.328 30.430,231.117 30.461,234.315 32.252 C 235.111 32.697,235.995 33.161,236.279 33.283 C 237.048 33.611,239.732 34.897,241.071 35.578 C 241.716 35.907,242.375 36.176,242.534 36.176 C 242.694 36.176,243.282 36.410,243.841 36.697 C 244.400 36.983,245.370 37.367,245.995 37.549 C 246.620 37.732,247.411 38.025,247.752 38.200 C 248.859 38.768,253.963 40.060,258.088 40.815 C 267.163 42.478,274.437 40.332,276.793 35.297 C 277.769 33.212,277.824 32.041,277.027 30.336 C 276.672 29.578,276.382 28.872,276.382 28.768 C 276.382 28.663,276.230 28.451,276.044 28.297 C 275.858 28.143,275.485 27.689,275.216 27.290 C 274.946 26.890,274.442 26.191,274.095 25.736 C 273.748 25.282,273.276 24.662,273.045 24.358 C 272.584 23.752,272.040 22.811,271.515 21.715 C 270.177 18.918,272.350 15.315,276.279 13.816 C 277.183 13.471,279.540 13.811,280.925 14.486 M162.811 35.057 C 163.846 36.184,165.478 37.990,166.438 39.070 C 167.397 40.150,168.458 41.318,168.794 41.665 C 169.131 42.012,170.243 43.216,171.266 44.341 C 172.289 45.465,173.357 46.623,173.638 46.913 C 173.919 47.204,174.933 48.326,175.891 49.406 C 176.850 50.486,177.692 51.416,177.762 51.473 C 177.833 51.530,178.764 52.553,179.833 53.747 C 180.901 54.941,181.923 56.067,182.102 56.250 C 182.282 56.432,183.080 57.309,183.876 58.197 C 184.672 59.085,185.602 60.104,185.943 60.462 C 186.718 61.273,189.910 64.773,190.736 65.717 L 191.352 66.420 190.921 67.206 C 190.685 67.639,190.165 68.187,189.767 68.424 C 189.370 68.662,188.532 69.273,187.907 69.783 C 187.282 70.292,186.444 70.941,186.047 71.225 C 185.194 71.834,184.279 72.524,182.640 73.798 C 181.982 74.310,181.141 74.961,180.772 75.245 C 179.283 76.393,178.498 77.018,178.178 77.313 C 177.992 77.483,177.349 77.995,176.748 78.450 C 175.774 79.187,174.890 79.889,173.230 81.244 C 172.946 81.476,172.218 82.059,171.613 82.538 C 171.008 83.018,169.799 83.996,168.926 84.710 C 168.053 85.425,167.059 86.234,166.718 86.508 C 165.663 87.355,162.390 90.094,158.562 93.333 C 156.547 95.039,154.452 96.806,153.907 97.261 C 150.958 99.721,149.132 101.364,149.007 101.671 C 148.641 102.569,148.824 128.297,149.199 128.604 C 149.559 128.898,150.833 129.538,153.798 130.913 C 157.227 132.503,158.676 133.185,159.070 133.394 C 159.297 133.515,159.716 133.723,160.000 133.857 C 160.284 133.990,161.121 134.384,161.860 134.730 C 162.599 135.077,163.995 135.737,164.961 136.196 C 168.011 137.645,168.888 137.655,170.420 136.258 C 170.658 136.040,171.132 135.707,171.473 135.518 C 171.814 135.329,172.651 134.762,173.333 134.259 C 174.016 133.756,174.905 133.163,175.311 132.941 C 175.717 132.718,176.175 132.384,176.331 132.196 C 176.486 132.009,176.945 131.687,177.351 131.480 C 177.756 131.273,178.265 130.907,178.482 130.668 C 178.698 130.429,178.983 130.233,179.115 130.233 C 179.246 130.233,179.535 130.064,179.757 129.857 C 180.302 129.349,182.366 127.978,183.592 127.310 L 184.593 126.765 185.900 128.073 C 186.620 128.792,187.389 129.718,187.609 130.131 L 188.010 130.882 187.080 131.700 C 186.568 132.150,185.818 132.695,185.413 132.911 C 185.007 133.126,184.549 133.456,184.394 133.642 C 184.239 133.828,183.827 134.126,183.478 134.304 C 183.128 134.482,182.703 134.757,182.532 134.915 C 182.362 135.074,181.571 135.672,180.775 136.245 C 179.979 136.818,179.064 137.487,178.742 137.732 C 178.419 137.977,177.941 138.320,177.679 138.494 C 177.417 138.669,176.297 139.509,175.191 140.362 C 174.084 141.214,172.923 142.098,172.611 142.326 C 172.027 142.751,170.299 144.087,168.805 145.269 C 168.340 145.638,167.726 146.099,167.442 146.295 C 167.158 146.490,166.305 147.166,165.547 147.795 C 164.789 148.425,163.363 149.592,162.377 150.388 C 160.764 151.689,158.840 153.277,154.744 156.687 C 152.371 158.662,152.579 158.676,149.147 156.287 C 147.513 155.149,146.028 154.213,145.856 154.212 C 145.751 154.212,145.519 154.080,145.339 153.920 C 144.951 153.573,143.295 152.677,140.465 151.285 C 139.328 150.725,137.870 149.992,137.224 149.656 C 136.578 149.319,135.923 149.044,135.769 149.044 C 135.614 149.044,135.119 148.849,134.669 148.612 C 133.798 148.152,132.200 147.548,129.509 146.661 C 128.599 146.361,127.390 145.939,126.822 145.724 C 126.253 145.509,125.090 145.189,124.238 145.013 C 123.385 144.837,122.176 144.518,121.550 144.304 C 120.925 144.090,119.977 143.850,119.444 143.770 C 117.650 143.503,117.598 143.122,119.122 141.365 C 120.745 139.492,121.856 137.825,122.279 136.628 C 122.455 136.127,122.737 135.507,122.905 135.251 C 123.073 134.994,123.396 133.551,123.623 132.043 C 123.849 130.536,124.127 128.797,124.239 128.179 C 124.370 127.463,124.444 113.621,124.444 90.004 L 124.444 52.952 125.302 52.218 C 125.774 51.814,126.588 51.320,127.111 51.121 C 128.834 50.464,134.912 47.273,137.674 45.576 C 138.300 45.192,139.230 44.637,139.742 44.343 C 140.253 44.049,140.964 43.603,141.321 43.351 C 141.678 43.100,142.236 42.732,142.561 42.533 C 142.886 42.335,143.571 41.892,144.083 41.550 C 144.594 41.208,145.282 40.766,145.612 40.568 C 145.941 40.369,146.500 39.964,146.852 39.667 C 147.205 39.370,147.773 38.973,148.114 38.784 C 148.455 38.596,149.152 38.119,149.664 37.725 C 150.176 37.331,151.059 36.682,151.628 36.284 C 152.196 35.885,153.080 35.233,153.592 34.836 C 154.103 34.438,154.755 33.955,155.039 33.763 C 155.323 33.570,155.788 33.204,156.072 32.948 C 156.357 32.692,157.138 32.153,157.809 31.750 L 159.028 31.018 159.979 32.013 C 160.502 32.560,161.777 33.930,162.811 35.057 M340.347 32.138 C 341.088 32.595,342.604 33.640,344.393 34.926 C 345.018 35.376,345.902 35.947,346.357 36.195 C 346.811 36.443,347.430 36.842,347.732 37.083 C 348.034 37.323,348.762 37.798,349.351 38.140 C 349.939 38.481,350.762 38.986,351.179 39.262 C 351.597 39.538,352.357 39.984,352.868 40.253 C 353.380 40.522,354.496 41.156,355.349 41.661 C 356.202 42.167,357.132 42.673,357.416 42.786 C 357.700 42.899,358.165 43.131,358.450 43.301 C 358.734 43.472,359.385 43.804,359.897 44.039 C 360.408 44.273,361.385 44.731,362.067 45.056 C 366.677 47.249,370.695 48.598,376.430 49.877 C 377.291 50.069,377.625 50.253,377.822 50.646 C 378.293 51.583,378.199 137.516,377.726 137.917 C 376.955 138.571,375.701 139.153,374.188 139.562 C 373.320 139.796,372.414 140.112,372.174 140.264 C 371.934 140.416,371.196 140.697,370.535 140.890 C 369.873 141.082,368.916 141.460,368.408 141.731 C 367.900 142.001,367.342 142.222,367.168 142.222 C 366.646 142.222,358.463 146.225,356.176 147.599 C 355.437 148.043,354.413 148.647,353.902 148.940 C 352.919 149.503,352.068 150.074,350.677 151.104 C 350.212 151.449,349.759 151.731,349.672 151.731 C 349.585 151.731,349.222 151.969,348.866 152.259 C 348.509 152.549,347.798 153.109,347.287 153.504 C 346.775 153.899,345.910 154.568,345.364 154.992 C 344.817 155.416,343.748 156.343,342.986 157.052 C 341.361 158.567,340.516 158.753,339.492 157.821 C 338.864 157.250,335.804 154.981,334.764 154.315 C 334.409 154.088,333.673 153.623,333.129 153.282 C 332.584 152.941,331.883 152.452,331.569 152.196 C 331.256 151.941,330.920 151.731,330.822 151.731 C 330.725 151.731,330.187 151.406,329.627 151.008 C 329.067 150.610,328.499 150.284,328.364 150.284 C 328.228 150.284,327.868 150.087,327.562 149.847 C 326.894 149.322,326.055 148.875,321.282 146.500 C 319.269 145.498,317.190 144.452,316.662 144.174 C 316.134 143.896,315.565 143.669,315.399 143.669 C 315.233 143.669,314.595 143.402,313.983 143.076 C 313.370 142.749,312.543 142.413,312.145 142.327 C 311.747 142.242,311.049 141.981,310.594 141.748 C 310.140 141.515,309.070 141.113,308.217 140.854 C 307.364 140.595,306.062 140.188,305.323 139.949 C 301.992 138.871,299.947 138.297,298.646 138.072 C 296.241 137.658,296.009 136.861,297.771 135.070 C 298.886 133.937,299.543 132.988,300.335 131.370 C 302.789 126.349,302.713 127.726,302.787 87.006 C 302.846 55.033,302.871 52.958,303.208 52.661 C 303.672 52.250,305.893 51.384,307.585 50.953 C 308.317 50.767,309.247 50.449,309.652 50.246 C 310.056 50.044,310.667 49.812,311.008 49.731 C 311.657 49.576,314.205 48.509,315.969 47.652 C 316.537 47.376,317.421 46.956,317.933 46.719 C 319.384 46.047,322.659 44.179,324.374 43.047 C 326.785 41.454,327.344 41.063,327.545 40.830 C 327.659 40.699,327.987 40.446,328.274 40.269 C 328.922 39.870,329.200 39.640,332.403 36.854 C 333.824 35.618,335.554 34.026,336.247 33.318 C 338.220 31.300,338.795 30.929,339.276 31.364 C 339.491 31.559,339.973 31.907,340.347 32.138 M63.840 32.347 C 64.599 32.969,65.592 33.764,66.047 34.112 C 66.501 34.460,67.282 35.071,67.782 35.469 C 68.282 35.868,68.887 36.296,69.126 36.422 C 69.365 36.548,69.620 36.743,69.693 36.854 C 69.766 36.966,70.193 37.301,70.642 37.599 C 71.090 37.896,71.995 38.512,72.652 38.966 C 73.310 39.421,74.197 40.026,74.624 40.310 C 75.051 40.594,75.668 41.005,75.995 41.223 C 76.322 41.441,77.101 41.945,77.726 42.344 C 78.351 42.742,79.100 43.227,79.390 43.422 C 79.680 43.616,80.406 44.042,81.004 44.368 C 81.602 44.694,82.621 45.264,83.268 45.633 C 83.915 46.003,85.003 46.589,85.685 46.935 C 86.367 47.281,87.158 47.693,87.442 47.850 C 88.504 48.437,91.481 49.819,91.681 49.819 C 91.796 49.819,92.308 50.042,92.820 50.315 C 93.332 50.587,94.169 50.920,94.679 51.055 C 95.190 51.190,95.812 51.431,96.062 51.591 C 96.311 51.751,97.242 52.080,98.129 52.322 C 99.016 52.564,99.982 52.885,100.276 53.035 C 100.570 53.186,101.755 53.498,102.910 53.730 C 108.140 54.778,108.490 55.271,106.145 58.295 C 105.748 58.806,105.247 59.504,105.032 59.845 C 104.270 61.052,103.248 62.488,102.636 63.212 L 102.016 63.945 101.955 113.781 C 101.891 166.417,101.899 166.959,102.838 169.612 C 103.120 170.408,103.352 171.234,103.355 171.447 C 103.359 171.838,104.530 174.670,105.160 175.814 C 105.348 176.155,105.694 176.810,105.929 177.270 C 106.164 177.729,106.566 178.395,106.822 178.749 C 107.078 179.102,107.287 179.446,107.287 179.513 C 107.287 179.785,109.502 182.873,110.564 184.083 C 112.558 186.352,111.194 187.288,107.736 186.023 C 107.091 185.787,106.182 185.472,105.716 185.323 C 104.098 184.805,99.279 181.816,97.949 180.506 C 97.753 180.313,97.163 179.783,96.638 179.328 C 96.114 178.873,95.155 177.983,94.509 177.348 C 93.064 175.932,92.188 175.660,91.633 176.455 C 91.431 176.743,90.941 177.381,90.543 177.871 C 90.145 178.361,89.540 179.117,89.199 179.551 C 88.583 180.335,88.297 180.652,86.292 182.770 C 84.373 184.796,81.172 187.516,80.001 188.113 C 79.587 188.324,79.127 188.643,78.979 188.822 C 78.831 189.001,78.597 189.147,78.459 189.147 C 78.322 189.147,77.752 189.387,77.193 189.679 C 72.352 192.211,64.656 192.932,66.515 190.680 C 67.404 189.603,69.511 186.689,70.181 185.608 C 70.408 185.241,70.895 184.469,71.263 183.892 C 71.631 183.315,72.171 182.377,72.463 181.809 C 72.755 181.240,73.162 180.450,73.367 180.052 C 74.342 178.158,75.045 176.584,75.167 176.021 C 75.240 175.680,75.515 174.882,75.777 174.248 C 76.039 173.614,76.405 172.223,76.590 171.156 C 76.775 170.089,77.080 168.701,77.266 168.071 C 77.727 166.515,77.926 131.403,77.478 130.806 C 77.152 130.372,76.467 130.785,73.953 132.928 C 72.341 134.303,67.203 138.577,64.221 141.024 C 63.292 141.786,62.253 142.649,61.912 142.941 C 61.571 143.234,60.419 144.192,59.353 145.070 C 58.287 145.948,56.380 147.533,55.115 148.592 C 51.656 151.490,51.618 151.520,49.708 153.075 C 48.730 153.871,46.968 155.336,45.794 156.331 C 43.011 158.687,42.972 158.688,40.444 156.509 C 38.586 154.908,35.450 151.677,34.766 150.659 C 34.575 150.374,34.047 149.606,33.592 148.951 C 32.353 147.167,29.563 142.034,29.559 141.531 C 29.558 141.399,29.314 140.780,29.018 140.155 C 28.536 139.137,28.123 137.785,27.188 134.160 C 26.533 131.621,26.462 127.251,26.461 89.385 L 26.460 51.534 26.931 50.836 C 27.351 50.212,27.601 50.089,29.256 49.690 C 30.276 49.445,31.576 49.053,32.145 48.820 C 32.713 48.587,33.597 48.263,34.109 48.099 C 35.277 47.727,37.004 47.031,38.346 46.394 C 38.915 46.124,39.794 45.758,40.300 45.582 C 40.806 45.405,41.364 45.130,41.540 44.972 C 41.716 44.813,42.394 44.484,43.045 44.240 C 43.697 43.997,44.287 43.706,44.356 43.593 C 44.426 43.481,44.962 43.160,45.549 42.880 C 46.135 42.600,47.092 42.070,47.675 41.702 C 48.258 41.334,49.234 40.725,49.845 40.347 C 50.456 39.969,51.328 39.383,51.783 39.044 C 52.238 38.705,52.983 38.177,53.440 37.870 C 55.014 36.813,58.145 34.266,59.742 32.744 C 61.657 30.919,62.052 30.880,63.840 32.347 M147.896 51.352 C 147.465 51.667,147.134 90.518,147.545 92.495 C 147.783 93.643,148.231 93.852,148.969 93.161 C 149.294 92.856,151.421 91.078,153.695 89.209 C 155.969 87.341,158.109 85.580,158.450 85.295 C 158.791 85.011,159.617 84.331,160.286 83.784 C 160.956 83.238,162.490 81.973,163.697 80.974 C 164.904 79.974,166.171 78.931,166.512 78.655 C 166.853 78.379,167.504 77.842,167.959 77.461 C 168.413 77.080,169.088 76.559,169.457 76.303 C 170.568 75.533,170.416 74.757,168.837 73.139 C 168.127 72.410,166.661 70.859,165.581 69.691 C 164.501 68.523,163.059 66.981,162.377 66.263 C 161.695 65.546,160.253 63.996,159.173 62.819 C 158.093 61.642,156.512 59.933,155.659 59.021 C 154.806 58.109,153.225 56.400,152.145 55.224 C 148.009 50.719,148.344 51.025,147.896 51.352 M224.186 53.408 C 223.787 54.016,223.689 81.062,224.082 82.184 C 224.231 82.610,224.590 82.966,225.175 83.268 C 225.654 83.515,226.651 84.090,227.390 84.544 C 228.129 84.999,229.106 85.553,229.561 85.775 C 230.016 85.998,230.708 86.417,231.100 86.707 C 231.491 86.998,231.916 87.235,232.045 87.235 C 232.173 87.235,232.643 87.512,233.090 87.850 C 233.536 88.187,234.008 88.467,234.137 88.470 C 234.266 88.473,234.846 88.801,235.424 89.199 C 237.041 90.311,237.950 90.104,238.970 88.391 C 239.315 87.812,239.876 86.966,240.217 86.512 C 240.985 85.487,242.241 83.675,242.791 82.797 C 243.018 82.434,243.437 81.854,243.721 81.508 C 244.005 81.162,244.424 80.573,244.651 80.198 C 245.619 78.605,245.927 78.143,246.305 77.726 C 246.525 77.483,246.894 76.978,247.125 76.604 C 247.658 75.741,248.901 73.941,249.705 72.868 C 250.046 72.413,250.612 71.576,250.962 71.008 C 251.312 70.439,251.921 69.556,252.315 69.044 C 252.710 68.532,253.193 67.853,253.390 67.534 C 253.586 67.216,254.094 66.472,254.519 65.881 C 255.502 64.514,256.049 63.725,256.555 62.946 C 256.776 62.605,257.186 62.000,257.465 61.602 C 257.744 61.204,258.184 60.570,258.443 60.192 C 258.703 59.815,259.142 59.222,259.420 58.875 C 260.496 57.529,258.717 57.382,252.462 58.301 C 249.488 58.738,244.722 58.847,242.974 58.518 C 242.418 58.413,240.615 58.127,238.966 57.882 C 237.318 57.637,235.579 57.265,235.103 57.056 C 234.627 56.847,233.710 56.566,233.066 56.432 C 232.421 56.298,231.322 55.919,230.624 55.588 C 229.925 55.258,229.223 54.987,229.062 54.987 C 228.902 54.987,228.390 54.767,227.925 54.498 C 227.460 54.229,226.739 53.899,226.321 53.764 C 225.904 53.629,225.451 53.384,225.314 53.219 C 224.953 52.784,224.551 52.851,224.186 53.408 M327.557 53.379 C 327.269 53.791,327.235 57.528,327.236 89.193 C 327.237 129.105,327.084 125.539,328.821 126.108 C 329.256 126.251,330.136 126.633,330.775 126.956 C 331.414 127.280,332.076 127.545,332.245 127.545 C 332.413 127.545,333.075 127.824,333.714 128.165 C 334.353 128.506,334.999 128.786,335.150 128.786 C 335.301 128.786,336.070 129.111,336.859 129.508 C 337.649 129.906,338.444 130.232,338.626 130.232 C 338.808 130.232,339.366 130.450,339.866 130.716 C 340.366 130.981,341.402 131.407,342.168 131.662 C 342.935 131.917,343.611 132.205,343.671 132.302 C 343.731 132.400,344.311 132.634,344.959 132.822 C 345.607 133.010,346.504 133.351,346.951 133.580 C 347.399 133.808,348.239 134.133,348.818 134.302 C 349.397 134.471,350.078 134.741,350.331 134.903 C 351.457 135.622,353.790 135.989,353.987 135.478 C 354.058 135.293,354.118 119.316,354.120 99.974 L 354.125 64.806 353.377 64.186 C 352.965 63.845,351.915 63.322,351.043 63.025 C 348.866 62.281,344.263 60.421,342.633 59.627 C 342.063 59.349,341.511 59.121,341.408 59.121 C 341.235 59.121,340.243 58.673,336.848 57.058 C 336.165 56.733,335.003 56.192,334.264 55.854 C 333.525 55.516,331.846 54.718,330.532 54.080 C 327.775 52.740,327.972 52.787,327.557 53.379 M51.349 54.732 C 50.677 55.180,50.667 55.700,50.656 89.734 C 50.643 127.882,50.630 127.459,51.894 129.882 C 52.357 130.770,52.872 131.653,53.039 131.846 C 53.205 132.039,53.844 132.782,54.458 133.497 C 57.544 137.087,58.630 137.416,60.966 135.466 C 62.255 134.390,63.734 133.195,66.734 130.807 C 67.265 130.384,67.979 129.806,68.320 129.524 C 68.661 129.241,69.393 128.657,69.946 128.226 C 70.498 127.795,71.344 127.116,71.824 126.718 C 72.683 126.008,73.408 125.425,75.112 124.077 C 75.583 123.704,76.364 123.008,76.848 122.529 L 77.726 121.659 77.723 95.093 C 77.720 65.560,77.815 67.748,76.510 67.090 C 74.608 66.130,70.169 63.839,69.664 63.556 C 69.380 63.397,68.729 63.075,68.217 62.841 C 67.036 62.299,65.780 61.680,65.116 61.311 C 64.832 61.153,62.320 59.883,59.535 58.489 C 56.749 57.094,54.331 55.837,54.160 55.694 C 53.949 55.517,51.576 54.492,51.576 54.577 C 51.576 54.579,51.474 54.648,51.349 54.732 M242.776 94.586 C 241.577 96.108,240.295 97.874,239.136 99.599 C 238.945 99.883,238.595 100.357,238.359 100.652 C 237.838 101.304,236.788 102.756,236.028 103.876 C 235.719 104.331,235.188 105.075,234.846 105.530 C 234.505 105.984,233.901 106.822,233.505 107.390 C 233.109 107.959,232.503 108.796,232.160 109.251 C 231.320 110.361,230.786 111.093,228.311 114.522 C 228.024 114.920,227.419 115.757,226.966 116.382 C 226.513 117.008,225.857 117.961,225.508 118.501 C 225.159 119.041,224.795 119.483,224.699 119.483 C 224.603 119.483,224.466 119.667,224.394 119.892 C 224.323 120.117,223.968 120.672,223.605 121.127 C 223.242 121.581,222.620 122.429,222.222 123.011 C 221.824 123.593,221.220 124.424,220.879 124.858 C 220.537 125.292,219.933 126.128,219.535 126.715 C 219.137 127.302,218.509 128.136,218.140 128.568 C 216.503 130.479,217.684 130.815,221.499 129.525 C 222.295 129.256,223.829 128.924,224.910 128.788 C 225.990 128.653,227.757 128.411,228.837 128.251 C 232.359 127.731,240.100 128.337,242.791 129.345 C 243.245 129.515,244.290 129.833,245.112 130.050 C 245.933 130.268,247.040 130.677,247.571 130.959 C 248.103 131.242,248.673 131.473,248.838 131.473 C 249.260 131.473,253.425 133.576,256.337 135.261 C 257.853 136.137,257.778 137.002,257.778 118.717 C 257.778 100.276,257.921 101.705,255.964 100.662 C 255.313 100.316,254.269 99.715,253.643 99.327 C 253.018 98.940,252.088 98.402,251.576 98.134 C 251.065 97.865,250.284 97.396,249.842 97.091 C 249.400 96.787,248.943 96.537,248.828 96.537 C 248.712 96.537,248.324 96.313,247.965 96.040 C 247.606 95.766,246.993 95.396,246.602 95.218 C 246.211 95.041,245.659 94.711,245.375 94.487 C 244.354 93.680,243.462 93.715,242.776 94.586 " stroke="none" fill="#fbfbfb" fill-rule="evenodd"></path></g></svg>